<?xml version="1.0" encoding="UTF-8" standalone="no"?>
<!DOCTYPE svg PUBLIC "-//W3C//DTD SVG 1.1//EN" "http://www.w3.org/Graphics/SVG/1.1/DTD/svg11.dtd">
<svg width="100%" height="100%" viewBox="0 0 150 150" version="1.1" xmlns="http://www.w3.org/2000/svg" xmlns:xlink="http://www.w3.org/1999/xlink" xml:space="preserve" style="fill-rule:evenodd;clip-rule:evenodd;stroke-linejoin:round;stroke-miterlimit:1.41421;">
    <g>
        <g transform="matrix(1.27399,0,0,1.27399,-20.8027,-29.1883)">
            <circle cx="75.199" cy="81.781" r="43.168" style="fill:rgb(55,232,92);"/>
        </g>
        <g transform="matrix(0.983811,0.179212,-0.179212,0.983811,13.3168,-8.42343)">
            <path d="M119.837,58.411C119.837,56.565 118.339,55.066 116.493,55.066C88.23,48.966 60.462,49.017 33.171,55.066C31.325,55.066 29.826,56.565 29.826,58.411L29.826,58.591C29.826,60.437 31.325,61.936 33.171,61.936C61.773,56.171 89.536,56.237 116.493,61.936C118.339,61.936 119.837,60.437 119.837,58.591L119.837,58.411Z" style="fill:white;"/>
        </g>
        <g transform="matrix(0.880109,0.160321,-0.160321,0.880109,18.5189,14.1635)">
            <path d="M119.837,58.411C119.837,56.565 118.339,55.066 116.493,55.066C88.512,47.974 60.743,47.912 33.171,55.066C31.325,55.066 29.826,56.565 29.826,58.411L29.826,58.591C29.826,60.437 31.325,61.936 33.171,61.936C61.178,54.888 88.95,54.99 116.493,61.936C118.339,61.936 119.837,60.437 119.837,58.591L119.837,58.411Z" style="fill:white;"/>
        </g>
        <g transform="matrix(0.647285,0.11791,-0.11791,0.647285,30.352,43.792)">
            <path d="M119.837,58.411C119.837,56.565 118.339,55.066 116.493,55.066C88.512,47.974 60.743,47.912 33.171,55.066C31.325,55.066 29.826,56.565 29.826,58.411L29.826,58.591C29.826,60.437 31.325,61.936 33.171,61.936C61.178,54.888 88.95,54.99 116.493,61.936C118.339,61.936 119.837,60.437 119.837,58.591L119.837,58.411Z" style="fill:white;"/>
        </g>
    </g>
</svg>
